<mxfile host="app.diagrams.net" modified="2024-01-04T22:41:19.072Z" agent="Mozilla/5.0 (Windows NT 10.0; Win64; x64) AppleWebKit/537.36 (KHTML, like Gecko) Chrome/120.0.0.0 Safari/537.36" etag="PdwjXZCfvJ9ciEBeXFWm" version="22.1.16" type="device">
  <diagram name="Sayfa -1" id="thQ08dCTdK2T3p8fzXUE">
    <mxGraphModel dx="521" dy="651" grid="1" gridSize="10" guides="1" tooltips="1" connect="1" arrows="1" fold="1" page="1" pageScale="1" pageWidth="827" pageHeight="1169" math="0" shadow="0">
      <root>
        <mxCell id="0" />
        <mxCell id="1" parent="0" />
        <mxCell id="sJUBMLo9-46T0OBBcHOp-20" value=":Student" style="shape=umlLifeline;perimeter=lifelinePerimeter;whiteSpace=wrap;html=1;container=0;dropTarget=0;collapsible=0;recursiveResize=0;outlineConnect=0;portConstraint=eastwest;newEdgeStyle={&quot;edgeStyle&quot;:&quot;elbowEdgeStyle&quot;,&quot;elbow&quot;:&quot;vertical&quot;,&quot;curved&quot;:0,&quot;rounded&quot;:0};" parent="1" vertex="1">
          <mxGeometry x="50" y="50" width="100" height="720" as="geometry" />
        </mxCell>
        <mxCell id="sJUBMLo9-46T0OBBcHOp-21" value="" style="html=1;points=[];perimeter=orthogonalPerimeter;outlineConnect=0;targetShapes=umlLifeline;portConstraint=eastwest;newEdgeStyle={&quot;edgeStyle&quot;:&quot;elbowEdgeStyle&quot;,&quot;elbow&quot;:&quot;vertical&quot;,&quot;curved&quot;:0,&quot;rounded&quot;:0};" parent="sJUBMLo9-46T0OBBcHOp-20" vertex="1">
          <mxGeometry x="45" y="70" width="10" height="630" as="geometry" />
        </mxCell>
        <mxCell id="sJUBMLo9-46T0OBBcHOp-22" value=":System" style="shape=umlLifeline;perimeter=lifelinePerimeter;whiteSpace=wrap;html=1;container=0;dropTarget=0;collapsible=0;recursiveResize=0;outlineConnect=0;portConstraint=eastwest;newEdgeStyle={&quot;edgeStyle&quot;:&quot;elbowEdgeStyle&quot;,&quot;elbow&quot;:&quot;vertical&quot;,&quot;curved&quot;:0,&quot;rounded&quot;:0};" parent="1" vertex="1">
          <mxGeometry x="400" y="50" width="100" height="720" as="geometry" />
        </mxCell>
        <mxCell id="sJUBMLo9-46T0OBBcHOp-23" value="" style="html=1;points=[];perimeter=orthogonalPerimeter;outlineConnect=0;targetShapes=umlLifeline;portConstraint=eastwest;newEdgeStyle={&quot;edgeStyle&quot;:&quot;elbowEdgeStyle&quot;,&quot;elbow&quot;:&quot;vertical&quot;,&quot;curved&quot;:0,&quot;rounded&quot;:0};" parent="sJUBMLo9-46T0OBBcHOp-22" vertex="1">
          <mxGeometry x="45" y="80" width="10" height="620" as="geometry" />
        </mxCell>
        <mxCell id="sJUBMLo9-46T0OBBcHOp-24" value="Login" style="html=1;verticalAlign=bottom;endArrow=block;edgeStyle=elbowEdgeStyle;elbow=vertical;curved=0;rounded=0;" parent="1" source="sJUBMLo9-46T0OBBcHOp-21" target="sJUBMLo9-46T0OBBcHOp-23" edge="1">
          <mxGeometry relative="1" as="geometry">
            <mxPoint x="205" y="140" as="sourcePoint" />
            <Array as="points">
              <mxPoint x="190" y="130" />
            </Array>
          </mxGeometry>
        </mxCell>
        <mxCell id="sJUBMLo9-46T0OBBcHOp-25" value="Transcript" style="html=1;verticalAlign=bottom;endArrow=open;dashed=1;endSize=8;edgeStyle=elbowEdgeStyle;elbow=vertical;curved=0;rounded=0;" parent="1" source="sJUBMLo9-46T0OBBcHOp-23" target="sJUBMLo9-46T0OBBcHOp-21" edge="1">
          <mxGeometry relative="1" as="geometry">
            <mxPoint x="205" y="215" as="targetPoint" />
            <Array as="points">
              <mxPoint x="270" y="190" />
              <mxPoint x="200" y="290" />
            </Array>
          </mxGeometry>
        </mxCell>
        <mxCell id="sJUBMLo9-46T0OBBcHOp-26" value="Show Transcript" style="html=1;verticalAlign=bottom;endArrow=block;edgeStyle=elbowEdgeStyle;elbow=vertical;curved=0;rounded=0;" parent="1" edge="1">
          <mxGeometry relative="1" as="geometry">
            <mxPoint x="105" y="160" as="sourcePoint" />
            <Array as="points">
              <mxPoint x="195" y="160" />
            </Array>
            <mxPoint x="445" y="160" as="targetPoint" />
          </mxGeometry>
        </mxCell>
        <mxCell id="sJUBMLo9-46T0OBBcHOp-27" value="Open Available Mandatory Courses List" style="html=1;verticalAlign=bottom;endArrow=block;edgeStyle=elbowEdgeStyle;elbow=vertical;curved=0;rounded=0;" parent="1" source="sJUBMLo9-46T0OBBcHOp-21" target="sJUBMLo9-46T0OBBcHOp-23" edge="1">
          <mxGeometry x="0.0294" relative="1" as="geometry">
            <mxPoint x="110" y="220" as="sourcePoint" />
            <Array as="points">
              <mxPoint x="200" y="220" />
            </Array>
            <mxPoint x="430" y="220" as="targetPoint" />
            <mxPoint as="offset" />
          </mxGeometry>
        </mxCell>
        <mxCell id="sJUBMLo9-46T0OBBcHOp-28" value="Available Mandatory Courses List" style="html=1;verticalAlign=bottom;endArrow=open;dashed=1;endSize=8;edgeStyle=elbowEdgeStyle;elbow=vertical;curved=0;rounded=0;" parent="1" source="sJUBMLo9-46T0OBBcHOp-23" target="sJUBMLo9-46T0OBBcHOp-21" edge="1">
          <mxGeometry relative="1" as="geometry">
            <mxPoint x="120" y="250" as="targetPoint" />
            <Array as="points">
              <mxPoint x="265" y="250" />
              <mxPoint x="195" y="350" />
            </Array>
            <mxPoint x="440" y="250" as="sourcePoint" />
          </mxGeometry>
        </mxCell>
        <mxCell id="sJUBMLo9-46T0OBBcHOp-29" value="Choose Mandatory Courses and Add to Draft" style="html=1;verticalAlign=bottom;endArrow=block;edgeStyle=elbowEdgeStyle;elbow=horizontal;curved=0;rounded=0;" parent="1" edge="1">
          <mxGeometry x="0.0882" relative="1" as="geometry">
            <mxPoint x="105" y="330" as="sourcePoint" />
            <Array as="points">
              <mxPoint x="200" y="330" />
            </Array>
            <mxPoint x="445" y="330" as="targetPoint" />
            <mxPoint as="offset" />
          </mxGeometry>
        </mxCell>
        <mxCell id="sJUBMLo9-46T0OBBcHOp-30" value="Send Draft to Advisor" style="html=1;verticalAlign=bottom;endArrow=block;edgeStyle=elbowEdgeStyle;elbow=horizontal;curved=0;rounded=0;" parent="1" edge="1">
          <mxGeometry relative="1" as="geometry">
            <mxPoint x="110" y="690" as="sourcePoint" />
            <Array as="points">
              <mxPoint x="200" y="690" />
            </Array>
            <mxPoint x="445" y="690" as="targetPoint" />
          </mxGeometry>
        </mxCell>
        <mxCell id="sJUBMLo9-46T0OBBcHOp-31" value="Logout" style="html=1;verticalAlign=bottom;endArrow=block;edgeStyle=elbowEdgeStyle;elbow=horizontal;curved=0;rounded=0;" parent="1" edge="1">
          <mxGeometry relative="1" as="geometry">
            <mxPoint x="110" y="720" as="sourcePoint" />
            <Array as="points">
              <mxPoint x="205" y="720" />
            </Array>
            <mxPoint x="445" y="720" as="targetPoint" />
          </mxGeometry>
        </mxCell>
        <mxCell id="sJUBMLo9-46T0OBBcHOp-32" value="Loop" style="shape=umlFrame;whiteSpace=wrap;html=1;pointerEvents=0;" parent="1" vertex="1">
          <mxGeometry x="110" y="275" width="320" height="185" as="geometry" />
        </mxCell>
        <mxCell id="sJUBMLo9-46T0OBBcHOp-33" value="Open Available Non-Technical Elective Courses List" style="html=1;verticalAlign=bottom;endArrow=block;edgeStyle=elbowEdgeStyle;elbow=horizontal;curved=0;rounded=0;" parent="1" edge="1">
          <mxGeometry relative="1" as="geometry">
            <mxPoint x="105" y="530" as="sourcePoint" />
            <Array as="points">
              <mxPoint x="195" y="530" />
            </Array>
            <mxPoint x="440" y="530" as="targetPoint" />
          </mxGeometry>
        </mxCell>
        <mxCell id="sJUBMLo9-46T0OBBcHOp-34" value="Open Available Non-Technical Elective Courses List" style="html=1;verticalAlign=bottom;endArrow=open;dashed=1;endSize=8;edgeStyle=elbowEdgeStyle;elbow=vertical;curved=0;rounded=0;" parent="1" edge="1">
          <mxGeometry relative="1" as="geometry">
            <mxPoint x="100" y="560" as="targetPoint" />
            <Array as="points">
              <mxPoint x="255" y="560" />
              <mxPoint x="185" y="660" />
            </Array>
            <mxPoint x="435" y="560" as="sourcePoint" />
          </mxGeometry>
        </mxCell>
        <mxCell id="sJUBMLo9-46T0OBBcHOp-35" value="Choose Non-Technical Elective Course and Add to Draft" style="html=1;verticalAlign=bottom;endArrow=block;edgeStyle=elbowEdgeStyle;elbow=horizontal;curved=0;rounded=0;" parent="1" edge="1">
          <mxGeometry relative="1" as="geometry">
            <mxPoint x="110" y="624" as="sourcePoint" />
            <Array as="points">
              <mxPoint x="205" y="624" />
            </Array>
            <mxPoint x="450" y="624" as="targetPoint" />
            <mxPoint as="offset" />
          </mxGeometry>
        </mxCell>
        <mxCell id="sJUBMLo9-46T0OBBcHOp-36" value="Loop" style="shape=umlFrame;whiteSpace=wrap;html=1;pointerEvents=0;" parent="1" vertex="1">
          <mxGeometry x="120" y="570" width="310" height="74" as="geometry" />
        </mxCell>
        <mxCell id="sJUBMLo9-46T0OBBcHOp-37" value="ALT" style="shape=umlFrame;whiteSpace=wrap;html=1;pointerEvents=0;" parent="1" vertex="1">
          <mxGeometry x="110" y="480" width="330" height="180" as="geometry" />
        </mxCell>
        <mxCell id="P2YeflCmDVF0CgZCgrBD-1" value="ALT" style="shape=umlFrame;whiteSpace=wrap;html=1;pointerEvents=0;" vertex="1" parent="1">
          <mxGeometry x="120" y="350" width="300" height="80" as="geometry" />
        </mxCell>
        <mxCell id="P2YeflCmDVF0CgZCgrBD-2" value="Choose Lab Section and Add to Draft" style="html=1;verticalAlign=bottom;endArrow=block;edgeStyle=elbowEdgeStyle;elbow=horizontal;curved=0;rounded=0;" edge="1" parent="1">
          <mxGeometry x="0.0882" relative="1" as="geometry">
            <mxPoint x="110" y="400" as="sourcePoint" />
            <Array as="points">
              <mxPoint x="205" y="400" />
            </Array>
            <mxPoint x="450" y="400" as="targetPoint" />
            <mxPoint as="offset" />
          </mxGeometry>
        </mxCell>
      </root>
    </mxGraphModel>
  </diagram>
</mxfile>
